<svg id="Layer_1" data-name="Layer 1" xmlns="http://www.w3.org/2000/svg" xmlns:xlink="http://www.w3.org/1999/xlink" viewBox="0 0 390.95 93.64"><defs><linearGradient id="New_Gradient_Swatch" x1="-1.78" y1="2.33" x2="76.26" y2="79.3" gradientUnits="userSpaceOnUse"><stop offset="0" stop-color="#00a19a"/><stop offset="1" stop-color="#1d71b8"/></linearGradient></defs><path d="M109.06,49.83h-4.21v-30h-8V16h20.27v3.86h-8Z" fill="#0076a7"/><path d="M140.36,29.65V16h4.22V49.83h-4.22V33.59H124.27V49.83h-4.22V16h4.22V29.65Z" fill="#0076a7"/><path d="M150.68,16h18.16v3.86h-14v9.46h13.54v3.86H154.89V46h14v3.86H150.68Z" fill="#0076a7"/><path d="M186.64,16h4.12c6.37,0,12.38,1.66,12.38,9.29,0,2.46-1.34,5.33-3.63,6.41v.09c4,.72,6.77,4.62,6.77,8.56,0,6.78-5.78,9.47-11.75,9.47h-7.89Zm4.21,15h1.08c4,0,7.26-.8,7.26-5.65S196,19.78,192,19.78h-1.17Zm0,15.07h3.23c3.9,0,8-1.16,8-6s-4.84-5.74-8.61-5.74h-2.6Z" fill="#0076a7"/><path d="M215.78,41.35l-3.85,8.48H207.4l16.14-35.25,16.15,35.25h-4.53l-3.86-8.48Zm7.76-17.53-6,13.67h12Z" fill="#0076a7"/><path d="M242.11,14.4,267.49,41V16h4.21V51.22l-25.38-26.6V49.83h-4.21Z" fill="#0076a7"/><path d="M296.27,16h5.52l-15.2,15.21,15.47,18.61h-5.7L283.63,34.09l-1.71,1.61V49.83h-4.21V16h4.21V30.68Z" fill="#0076a7"/><path d="M308.69,49.83h-4.21V16h4.21Z" fill="#0076a7"/><path d="M314.61,14.4,340,41V16h4.21V51.22l-25.38-26.6V49.83h-4.22Z" fill="#0076a7"/><path d="M381,32.79v1.34c0,9.28-6.55,16.42-16,16.42S347.93,42.38,347.93,33a17.61,17.61,0,0,1,31.3-11.17l-3,2.83a13.33,13.33,0,0,0-24.13,8.21c0,7.08,5.84,13.81,13.14,13.81,5.25,0,10.9-4.53,11.08-10h-8.74V32.79Z" fill="#0076a7"/><path d="M104.75,73.23l-2.39,5.62H100l9.13-20.74L118,78.85h-2.44l-2.34-5.62Zm4.28-10-3.39,7.92h6.69Z" fill="#00b3ba"/><path d="M161,63.39a8.45,8.45,0,0,0-6-2.63A8.19,8.19,0,0,0,155,77.14a8.66,8.66,0,0,0,6-2.62v2.73A10.23,10.23,0,0,1,144.73,69a10.35,10.35,0,0,1,10.32-10.31,9.56,9.56,0,0,1,5.9,1.94Z" fill="#00b3ba"/><path d="M193.37,73.23,191,78.85h-2.41l9.13-20.74,8.9,20.74h-2.44l-2.34-5.62Zm4.28-10-3.38,7.92H201Z" fill="#00b3ba"/><path d="M234.48,59.06h3.73c3,0,5.38.39,7.71,2.39a10.16,10.16,0,0,1,.06,14.9c-2.37,2.1-4.73,2.5-7.82,2.5h-3.68Zm3.81,17.74c2.41,0,4.43-.34,6.24-2a8.09,8.09,0,0,0-.1-11.73c-1.81-1.6-3.81-1.91-6.14-1.91h-1.6V76.8Z" fill="#00b3ba"/><path d="M278,59.06h10.26v2h-8.06V67H288v2h-7.82V76.8h8.06v2H278Z" fill="#00b3ba"/><path d="M320.32,57.93l7.19,16.61,7.22-16.61,4,20.92h-2.26l-2.55-13.39h-.05l-6.38,14.2-6.35-14.2h-.05l-2.55,13.39h-2.25Z" fill="#00b3ba"/><path d="M365.21,59.06h2.55l5,8.82,5-8.82h2.54L373.9,70.34v8.51h-2.21V70.34Z" fill="#00b3ba"/><path d="M74.86,61.32v-28a4.16,4.16,0,0,0-1.72-7.95,4.1,4.1,0,0,0-2.41.78L43,10.15,15.65,26a4.11,4.11,0,0,0-2.5-.84,4.16,4.16,0,0,0-2,7.83V60.33a4.16,4.16,0,0,0,4,7.28L43,83.67l27-15.6a4.16,4.16,0,1,0,4.8-6.75Zm-4.49.23L57.45,46.94a4.15,4.15,0,0,0,1.06-2.78,4.21,4.21,0,0,0-.26-1.47l12-10.12a4.21,4.21,0,0,0,1.62,1V60.86A4,4,0,0,0,70.37,61.55ZM17,30.81,38.1,32.72a4.11,4.11,0,0,0,1,1.94L29.8,50.89l-.39,0a4.18,4.18,0,0,0-1.66.35l-11.66-19A4.17,4.17,0,0,0,17,30.81Zm51.61.29L57,40.91a4.16,4.16,0,0,0-2.6-.92,4.11,4.11,0,0,0-2.48.83l-6.59-6.21a4.17,4.17,0,0,0,1-2.35ZM32.22,52a3,3,0,0,0-.34-.28L41,35.84a4.37,4.37,0,0,0,1.21.17,4.28,4.28,0,0,0,1.19-.17l7.14,6.73a4.17,4.17,0,0,0-.31,1.59c0,.15,0,.3,0,.45ZM33.58,55a4.19,4.19,0,0,0-.17-1.17L51,46.66a4.33,4.33,0,0,0,.8.8L42.41,79,32,58.31A4.13,4.13,0,0,0,33.58,55ZM69,28.87,45.93,30.08a4.17,4.17,0,0,0-2.82-2.28L44,14.08,69.09,28.59A2.74,2.74,0,0,0,69,28.87Zm-28.15-1a4.15,4.15,0,0,0-2.66,2.63l-21-1.91c0-.05,0-.11,0-.17l24.5-14.15ZM14.18,33.31,26,52.63a4.16,4.16,0,0,0-.77,2.4,4,4,0,0,0,.18,1.2l-9,5a4.18,4.18,0,0,0-2.33-1.37V33.32Zm3.23,29.87,9.2-5.08a4.12,4.12,0,0,0,2.8,1.1,4.38,4.38,0,0,0,.52,0L39.59,78.3,17.2,65.37a4.21,4.21,0,0,0,.27-1.47A4.37,4.37,0,0,0,17.41,63.18ZM53.88,48.29a3.59,3.59,0,0,0,.47,0,4.14,4.14,0,0,0,1.22-.18L69,63.29a4.08,4.08,0,0,0-.34,1.64,4.91,4.91,0,0,0,0,.55L44.6,79.37Z" fill="url(#New_Gradient_Swatch)"/></svg>