<?xml version="1.0" encoding="UTF-8" ?>
<!DOCTYPE svg PUBLIC "-//W3C//DTD SVG 1.1//EN" "http://www.w3.org/Graphics/SVG/1.1/DTD/svg11.dtd">
<svg width="351.75pt" height="159.75pt" viewBox="0 0 1050 477" version="1.1" xmlns="http://www.w3.org/2000/svg">
<g id="#ffffffff">
</g>
<g id="#014fa2ff">
<path fill="#014fa2" opacity="1.00" d=" M 610.98 11.99 C 613.53 11.77 616.65 9.56 618.92 11.05 C 619.60 17.31 618.85 23.65 619.07 29.95 C 618.64 57.96 618.17 85.97 618.20 113.99 C 618.23 118.60 618.33 123.37 620.41 127.59 C 624.34 127.62 628.26 127.61 632.19 127.67 C 632.17 129.24 632.15 130.82 632.14 132.39 C 617.61 132.46 603.08 132.41 588.55 132.42 C 588.54 130.82 588.56 129.22 588.62 127.62 C 593.12 127.27 597.98 128.38 602.28 127.08 C 602.73 107.38 602.34 87.65 602.47 67.94 C 602.34 54.28 602.76 40.60 602.18 26.94 C 602.14 24.03 601.40 21.21 600.17 18.59 C 596.71 18.59 593.24 18.58 589.79 18.50 C 589.78 16.88 589.79 15.26 589.80 13.64 C 596.88 13.65 604.08 13.91 610.98 11.99 Z" />
<path fill="#014fa2" opacity="1.00" d=" M 321.28 22.88 C 338.50 22.64 355.73 22.86 372.95 22.77 C 382.43 22.61 392.10 23.58 400.97 27.07 C 412.53 31.88 422.77 40.76 427.45 52.57 C 432.81 65.99 433.01 81.16 429.53 95.08 C 425.98 109.49 415.56 121.90 401.99 127.90 C 388.25 134.29 372.71 133.23 357.97 133.20 C 346.51 132.60 335.03 132.38 323.56 132.42 C 323.51 130.70 323.47 128.98 323.44 127.27 C 328.01 127.04 332.59 127.13 337.16 127.14 C 338.17 123.85 337.83 120.38 337.84 117.00 C 337.97 96.99 338.10 76.98 337.70 56.98 C 337.51 48.83 337.76 40.63 336.69 32.52 C 336.50 30.96 335.73 29.57 335.10 28.15 C 330.49 28.24 325.88 28.27 321.28 28.08 C 321.27 26.34 321.27 24.61 321.28 22.88 M 354.80 33.99 C 354.80 54.34 354.70 74.69 354.74 95.04 C 354.81 104.17 354.37 113.35 355.66 122.42 C 355.92 124.02 356.40 126.29 358.40 126.43 C 365.53 127.56 372.79 127.47 379.99 127.44 C 389.14 127.25 398.98 124.44 404.77 116.88 C 413.87 106.01 414.93 91.00 413.79 77.46 C 413.01 63.08 405.67 49.47 394.99 39.99 C 384.09 31.28 369.65 26.75 355.74 28.66 C 355.24 30.40 354.72 32.16 354.80 33.99 Z" />
<path fill="#014fa2" opacity="1.00" d=" M 554.38 24.52 C 556.97 24.08 560.19 23.71 562.24 25.73 C 564.87 29.05 563.62 33.95 561.03 36.92 C 557.94 40.49 553.00 43.65 548.17 41.72 C 545.05 40.64 544.17 36.74 545.03 33.86 C 546.44 29.54 549.90 25.69 554.38 24.52 Z" />
<path fill="#014fa2" opacity="1.00" d=" M 534.56 57.80 C 544.36 58.06 554.14 57.74 563.89 56.74 C 564.25 64.83 563.60 72.92 563.15 80.99 C 563.00 93.32 562.60 105.66 562.97 117.99 C 563.26 121.19 563.24 124.84 565.24 127.51 C 568.95 127.80 572.68 127.55 576.40 127.65 C 576.39 129.24 576.40 130.83 576.40 132.42 C 562.53 132.42 548.65 132.42 534.78 132.43 C 534.77 130.83 534.77 129.24 534.77 127.65 C 538.76 127.61 542.76 127.63 546.76 127.61 C 547.74 112.10 547.34 96.51 547.66 80.96 C 547.49 75.10 548.40 68.71 545.30 63.41 C 541.72 63.47 538.13 63.45 534.56 63.42 C 534.53 61.55 534.53 59.68 534.56 57.80 Z" />
<path fill="#014fa2" opacity="1.00" d=" M 471.34 60.62 C 478.40 58.10 486.13 57.66 493.50 58.79 C 498.37 59.92 503.99 62.08 505.85 67.18 C 507.07 70.67 508.03 74.39 507.69 78.12 C 506.81 87.35 506.80 96.63 506.30 105.89 C 506.04 110.35 506.07 115.33 509.09 118.96 C 512.73 123.09 518.08 125.04 523.22 126.56 C 521.42 130.33 517.52 132.70 513.92 134.54 C 504.27 134.66 495.52 127.32 491.87 118.67 C 488.36 124.10 483.74 129.03 477.68 131.57 C 470.67 134.60 461.83 134.11 455.77 129.21 C 451.72 125.72 451.82 119.75 452.93 114.97 C 454.84 107.21 461.21 101.40 468.28 98.20 C 475.28 95.21 482.67 93.31 490.01 91.39 C 492.70 91.08 491.59 87.83 491.92 86.02 C 491.44 79.93 493.53 72.88 489.38 67.68 C 485.77 63.85 479.92 63.63 475.07 64.57 C 473.12 65.12 470.82 65.67 469.55 67.35 C 468.16 71.31 469.78 75.91 467.45 79.62 C 465.55 84.16 459.84 85.68 455.44 84.34 C 452.86 83.30 452.86 79.97 453.73 77.76 C 456.77 69.87 463.39 63.47 471.34 60.62 M 477.63 99.69 C 472.85 102.27 468.31 106.35 467.24 111.91 C 467.00 114.87 466.78 118.07 468.22 120.79 C 469.97 124.47 474.77 126.12 478.53 124.73 C 483.40 123.16 487.34 119.21 489.73 114.77 C 491.03 108.63 491.63 102.27 491.24 95.99 C 486.47 96.01 481.76 97.30 477.63 99.69 Z" />
<path fill="#014fa2" opacity="1.00" d=" M 643.64 58.87 C 655.63 58.93 667.63 58.60 679.61 59.05 C 679.57 60.55 679.55 62.05 679.52 63.55 C 676.65 63.59 673.78 63.43 670.93 63.67 C 669.16 64.22 669.55 66.58 670.11 67.87 C 676.05 84.23 682.46 100.46 689.98 116.17 C 691.67 113.36 693.13 110.41 694.27 107.33 C 698.73 95.21 702.77 82.84 704.72 70.05 C 704.73 67.96 705.66 64.65 703.04 63.77 C 699.78 63.37 696.49 63.61 693.23 63.57 C 693.19 62.05 693.17 60.54 693.16 59.02 C 703.36 58.75 713.59 58.72 723.78 59.02 C 723.77 60.57 723.77 62.13 723.78 63.68 C 721.73 64.04 718.79 63.40 717.96 65.89 C 710.53 80.29 706.33 96.06 699.87 110.88 C 691.96 129.43 682.53 147.28 673.06 165.07 C 671.63 167.48 670.77 170.60 668.48 172.29 C 661.89 173.02 655.22 173.23 648.70 174.60 C 648.00 173.67 647.31 172.74 646.62 171.81 C 658.20 166.68 666.41 156.65 673.57 146.57 C 676.49 142.25 679.56 137.94 681.46 133.06 C 681.26 131.11 679.99 129.51 679.20 127.78 C 669.81 109.63 663.25 90.20 654.20 71.90 C 652.85 69.31 651.62 66.55 649.51 64.47 C 647.71 63.55 645.55 63.98 643.61 63.78 C 643.61 62.14 643.62 60.51 643.64 58.87 Z" />
<path fill="#014fa2" opacity="1.00" d=" M 19.87 131.64 C 23.09 130.25 26.60 131.40 29.96 131.40 C 60.97 132.81 91.98 134.40 123.03 134.86 C 159.38 134.99 195.74 134.67 232.06 133.38 C 235.98 133.31 239.81 132.21 243.72 132.22 C 245.09 132.95 245.59 134.52 245.11 135.96 C 243.32 145.60 241.02 155.14 238.36 164.57 C 237.29 168.19 232.33 167.84 229.78 166.12 C 227.63 163.89 226.70 160.72 224.34 158.66 C 220.52 154.92 215.10 153.74 209.99 153.02 C 198.36 151.44 186.64 150.58 174.95 149.54 C 166.66 149.00 158.35 147.96 150.04 148.34 C 147.93 149.51 148.48 152.42 148.17 154.46 C 147.02 197.63 146.43 240.81 146.37 284.00 C 146.45 307.34 145.41 330.79 148.13 354.02 C 149.29 358.69 149.51 364.41 153.52 367.66 C 164.00 368.42 174.58 367.47 185.08 368.17 C 185.18 372.06 185.16 375.95 185.14 379.84 C 181.75 380.12 178.35 380.13 174.95 380.10 C 146.61 380.09 118.28 380.10 89.95 380.09 C 85.68 380.08 81.41 380.24 77.15 379.85 C 76.82 375.98 76.82 372.09 77.17 368.22 C 86.76 367.53 96.40 368.22 106.00 367.82 C 107.59 367.99 108.46 366.29 108.49 364.93 C 108.63 347.30 107.40 329.67 108.00 312.04 C 108.67 277.53 108.76 243.00 109.75 208.49 C 109.86 198.35 110.00 188.20 109.37 178.08 C 108.76 169.44 108.82 160.66 106.69 152.21 C 106.06 150.40 105.35 147.53 102.88 147.77 C 82.86 147.89 62.71 149.00 43.12 153.41 C 38.45 154.57 33.51 155.51 29.57 158.47 C 24.99 161.55 21.78 166.25 17.08 169.15 C 14.67 169.94 11.64 170.01 9.46 168.54 C 6.90 166.16 9.93 163.05 10.48 160.41 C 13.45 150.77 16.66 141.21 19.87 131.64 Z" />
<path fill="#014fa2" opacity="1.00" d=" M 454.95 163.20 C 459.64 162.21 463.86 159.83 468.42 158.41 C 470.03 161.35 469.45 164.75 469.42 167.96 C 468.70 197.30 467.55 226.64 467.00 255.98 C 466.72 259.63 466.76 263.30 467.29 266.93 C 477.04 259.53 486.53 250.56 498.93 248.06 C 513.85 244.92 530.37 247.17 542.97 256.12 C 556.79 265.62 564.89 281.66 567.51 297.94 C 570.28 314.58 569.50 332.40 562.07 347.81 C 555.19 362.39 542.05 373.51 527.14 379.29 C 508.18 386.23 486.82 383.96 468.35 376.56 C 462.84 374.48 457.39 370.79 451.30 371.41 C 445.90 374.87 446.11 382.32 444.80 387.95 C 444.12 390.64 440.67 389.64 438.68 389.42 C 437.54 387.50 437.75 385.20 437.69 383.07 C 438.05 326.72 438.09 270.36 438.71 214.00 C 438.31 202.32 440.19 190.23 436.49 178.92 C 435.82 176.93 434.43 174.63 432.03 174.75 C 426.06 174.57 420.08 174.80 414.11 174.67 C 413.56 171.87 413.62 169.01 414.06 166.20 C 427.71 165.92 441.55 166.23 454.95 163.20 M 483.43 267.59 C 477.65 268.86 471.92 271.26 467.56 275.34 C 465.94 281.02 467.20 287.13 466.81 292.99 C 467.23 314.34 465.66 335.84 468.48 357.07 C 469.09 360.98 469.38 365.67 472.95 368.14 C 477.82 370.95 483.41 372.22 488.92 373.09 C 498.81 374.38 509.31 374.06 518.41 369.58 C 529.15 364.62 537.23 354.71 540.32 343.33 C 544.45 327.98 543.69 311.38 538.59 296.35 C 534.95 286.45 529.29 276.27 519.37 271.53 C 508.31 266.22 495.37 265.39 483.43 267.59 Z" />
<path fill="#014fa2" opacity="1.00" d=" M 370.28 185.40 C 374.39 184.86 379.15 184.56 382.56 187.35 C 385.92 190.36 386.03 195.38 385.26 199.50 C 383.70 206.45 378.05 211.57 372.15 215.08 C 367.19 218.05 360.49 218.64 355.48 215.48 C 351.02 212.25 350.85 205.69 352.54 200.91 C 355.55 193.39 362.08 186.79 370.28 185.40 Z" />
<path fill="#014fa2" opacity="1.00" d=" M 252.01 245.47 C 256.15 245.20 259.97 243.44 264.05 242.84 C 265.45 242.24 267.20 243.55 267.09 245.05 C 267.90 251.43 265.47 258.05 267.43 264.26 C 274.58 259.12 280.84 252.57 289.01 249.01 C 295.13 246.31 302.05 244.82 308.69 246.26 C 315.50 247.54 321.84 251.94 325.03 258.14 C 325.55 261.73 324.43 265.36 323.70 268.86 C 322.11 274.46 320.94 280.81 316.08 284.60 C 312.32 283.28 310.79 279.37 308.29 276.63 C 303.83 270.82 296.16 268.26 289.02 268.51 C 281.88 268.74 274.37 270.14 268.52 274.49 C 267.04 275.46 266.61 277.33 266.60 279.00 C 266.45 301.01 266.38 323.02 266.34 345.03 C 266.36 352.54 266.20 360.23 268.33 367.51 C 268.83 369.30 269.91 371.56 272.11 371.42 C 280.71 371.69 289.32 372.05 297.93 372.33 C 298.41 375.16 298.40 378.03 298.14 380.89 C 271.47 380.53 244.78 380.62 218.12 379.89 C 217.94 377.19 217.90 374.49 217.92 371.79 C 224.24 370.85 230.65 371.89 236.99 371.23 C 238.20 370.18 238.28 368.50 238.27 367.03 C 238.23 337.70 238.26 308.36 238.25 279.03 C 238.26 272.17 238.33 265.20 236.55 258.52 C 236.07 256.97 235.09 254.98 233.14 255.22 C 227.43 255.06 221.71 255.29 216.00 255.10 C 215.80 252.12 215.80 249.13 215.95 246.15 C 227.97 245.79 240.02 246.47 252.01 245.47 Z" />
<path fill="#014fa2" opacity="1.00" d=" M 785.96 244.71 C 789.60 244.43 793.22 243.83 796.88 243.72 C 798.20 243.38 798.86 244.77 798.95 245.87 C 799.46 251.27 798.10 256.75 799.40 262.09 C 811.05 255.48 822.58 247.59 836.11 245.55 C 848.23 244.23 861.79 246.32 870.84 255.14 C 876.43 260.35 879.04 267.75 880.90 274.96 C 883.60 287.11 882.91 299.63 882.70 311.97 C 882.37 329.64 881.60 347.30 881.60 364.97 C 881.75 367.17 881.97 370.07 884.09 371.29 C 889.90 371.65 895.75 371.25 901.58 371.49 C 901.47 374.29 902.26 377.37 901.12 380.01 C 879.80 380.13 858.47 380.23 837.16 379.94 C 836.83 377.12 836.84 374.28 837.25 371.48 C 841.50 371.32 845.77 371.64 850.02 371.30 C 851.62 371.26 851.65 369.23 851.86 368.09 C 853.46 354.14 853.28 340.07 853.54 326.05 C 853.49 314.38 854.02 302.68 853.12 291.04 C 852.01 283.44 850.70 274.68 844.03 269.83 C 836.68 264.22 826.85 264.36 818.12 265.45 C 811.81 266.10 805.71 267.89 799.69 269.78 C 798.97 271.41 798.28 273.08 798.29 274.89 C 797.41 296.24 797.76 317.62 797.58 338.98 C 797.71 348.40 797.34 357.97 799.51 367.20 C 800.05 368.92 800.64 371.64 802.99 371.41 C 808.15 371.52 813.33 371.26 818.50 371.55 C 818.66 374.29 818.68 377.04 818.64 379.79 C 802.42 380.50 786.16 379.89 769.93 380.09 C 762.68 380.04 755.43 380.24 748.19 379.98 C 748.06 377.14 748.05 374.30 748.21 371.48 C 754.50 371.26 760.82 371.66 767.11 371.26 C 769.23 370.40 768.48 367.75 768.75 365.97 C 768.90 339.31 769.50 312.65 769.66 285.99 C 769.58 277.65 770.04 269.23 768.53 260.98 C 768.03 258.82 767.57 256.49 766.00 254.82 C 759.48 254.19 752.90 254.76 746.36 254.52 C 745.79 251.64 745.85 248.70 746.11 245.79 C 759.39 245.39 772.74 246.41 785.96 244.71 Z" />
<path fill="#014fa2" opacity="1.00" d=" M 358.05 245.69 C 366.78 245.80 375.41 244.19 384.10 243.72 C 385.98 243.29 385.98 245.79 386.04 246.98 C 386.09 255.66 385.73 264.33 385.56 273.01 C 384.20 291.97 384.33 310.98 384.16 329.98 C 384.25 341.81 383.65 353.76 385.76 365.47 C 386.28 367.61 386.96 370.07 388.92 371.33 C 395.45 371.60 401.99 371.25 408.52 371.50 C 408.66 374.26 408.68 377.02 408.66 379.78 C 389.46 380.51 370.21 379.88 351.00 380.10 C 345.34 379.91 339.63 380.52 334.02 379.78 C 333.51 377.08 333.79 374.31 333.75 371.59 C 340.56 371.13 347.40 371.70 354.22 371.29 C 356.39 370.51 355.57 367.74 355.85 365.97 C 355.78 334.97 357.16 303.98 356.73 272.98 C 356.05 267.12 356.31 260.43 352.18 255.73 C 346.01 255.48 339.81 255.97 333.66 255.47 C 332.29 252.60 332.93 249.09 333.28 246.01 C 341.48 245.29 349.80 245.95 358.05 245.69 Z" />
<path fill="#014fa2" opacity="1.00" d=" M 620.90 245.38 C 623.98 245.00 627.09 244.36 630.22 244.64 C 632.13 247.33 631.06 250.96 631.31 254.06 C 631.05 283.36 631.08 312.66 630.79 341.95 C 631.05 348.93 631.15 358.34 638.48 361.81 C 647.80 365.50 658.38 364.45 667.85 361.82 C 675.13 359.93 681.13 355.22 687.82 352.01 C 688.06 337.68 687.77 323.36 687.92 309.03 C 688.26 300.70 688.13 292.35 687.89 284.02 C 687.72 276.73 688.45 269.32 686.72 262.16 C 686.16 260.24 685.63 258.08 683.91 256.86 C 677.64 255.83 671.10 257.43 664.93 256.09 C 664.44 253.34 664.73 250.52 664.73 247.75 C 675.46 247.37 686.20 247.86 696.93 247.46 C 703.45 247.30 709.85 245.79 716.36 245.39 C 716.73 246.90 717.15 248.42 717.16 250.00 C 717.12 280.66 716.77 311.32 716.54 341.99 C 716.63 350.21 717.94 359.07 723.55 365.48 C 726.32 369.11 730.72 370.80 733.86 374.02 C 732.93 374.83 732.30 376.17 730.95 376.34 C 722.35 378.25 713.43 379.60 705.74 384.19 C 696.44 379.83 693.63 369.12 689.21 360.73 C 680.96 366.44 672.48 371.82 663.66 376.61 C 657.18 380.60 649.37 381.12 641.97 381.60 C 635.16 381.77 627.92 382.58 621.58 379.47 C 610.41 374.27 603.08 362.23 602.96 349.98 C 602.91 331.65 602.96 313.32 602.94 294.99 C 603.02 284.68 602.80 274.31 601.27 264.10 C 600.38 261.25 600.25 257.08 597.09 255.79 C 591.16 255.34 585.18 256.01 579.25 255.52 C 577.77 253.12 578.91 249.61 578.68 246.79 C 592.75 246.48 606.92 247.45 620.90 245.38 Z" />
<path fill="#014fa2" opacity="1.00" d=" M 951.08 250.11 C 965.80 243.29 982.89 245.28 997.95 249.91 C 1014.22 254.60 1027.66 266.25 1037.23 279.91 C 1038.86 282.33 1039.98 287.30 1036.03 288.05 C 1024.89 291.09 1013.49 293.16 1002.18 295.46 C 983.14 298.42 964.10 302.30 944.75 301.85 C 943.56 309.96 944.94 318.18 946.69 326.11 C 948.34 334.45 951.92 342.35 956.72 349.35 C 959.79 354.17 964.01 358.32 969.37 360.51 C 983.00 366.33 998.44 367.27 1012.91 364.52 C 1021.23 362.94 1028.94 358.89 1035.17 353.19 C 1036.62 354.40 1038.03 355.67 1039.40 357.00 C 1036.51 360.96 1032.47 363.82 1028.53 366.64 C 1013.38 376.73 995.37 383.37 976.97 382.64 C 962.52 382.49 947.64 378.10 936.97 368.02 C 923.30 355.74 916.42 337.18 916.33 319.05 C 915.94 305.85 918.68 292.68 923.64 280.48 C 928.69 267.49 938.50 256.25 951.08 250.11 M 961.56 256.50 C 956.09 259.73 952.11 265.13 950.16 271.13 C 947.63 278.47 945.42 286.20 945.98 294.03 C 957.22 293.92 968.55 293.39 979.54 290.86 C 988.07 288.76 997.05 287.82 1005.05 284.00 C 1004.94 282.68 1004.69 281.39 1004.29 280.15 C 1000.29 270.41 992.73 262.19 983.41 257.33 C 976.70 254.27 968.29 252.66 961.56 256.50 Z" />
</g>
<g id="#040404ff">
<path fill="#040404" opacity="1.00" d=" M 503.42 417.63 C 514.54 414.06 527.60 419.91 532.37 430.55 C 535.81 437.70 535.40 446.71 531.21 453.48 C 526.88 460.73 518.50 465.50 510.00 465.05 C 502.50 465.25 495.16 461.34 490.77 455.33 C 486.49 449.19 484.77 441.05 487.22 433.87 C 489.35 426.13 495.72 419.83 503.42 417.63 M 503.46 420.59 C 497.97 422.40 493.35 426.59 490.86 431.79 C 488.65 436.89 488.40 442.78 490.10 448.07 C 493.20 457.33 503.26 463.58 512.95 462.25 C 524.10 461.08 533.15 450.16 531.79 438.94 C 531.03 425.61 515.96 415.80 503.46 420.59 Z" />
<path fill="#040404" opacity="1.00" d=" M 497.37 435.11 C 498.51 429.84 503.57 426.65 508.52 425.54 C 506.97 427.27 504.96 429.42 505.96 431.96 C 506.22 433.93 510.07 436.78 506.35 437.40 C 506.46 443.62 506.38 449.85 506.40 456.07 C 504.86 456.09 503.33 456.11 501.80 456.14 C 501.75 454.64 501.72 453.13 501.70 451.65 C 500.19 451.62 498.68 451.59 497.18 451.57 C 497.21 449.58 497.24 447.60 497.27 445.63 C 496.46 445.55 494.84 445.40 494.03 445.33 C 495.40 442.01 496.85 438.69 497.37 435.11 Z" />
<path fill="#040404" opacity="1.00" d=" M 512.31 425.44 C 517.04 426.74 522.11 429.63 523.24 434.80 C 524.04 438.45 525.35 441.94 526.62 445.45 C 525.82 445.46 524.20 445.47 523.39 445.48 C 523.39 447.50 523.40 449.52 523.42 451.55 C 521.90 451.54 520.40 451.56 518.89 451.57 C 518.90 453.08 518.91 454.59 518.92 456.11 C 517.40 456.10 515.88 456.10 514.37 456.10 C 514.37 449.87 514.28 443.64 514.42 437.41 C 513.96 437.12 513.03 436.54 512.57 436.25 C 513.43 434.55 514.79 432.98 515.02 431.03 C 515.45 428.72 513.45 427.17 512.31 425.44 Z" />
<path fill="#040404" opacity="1.00" d=" M 572.58 453.16 C 571.63 444.55 570.95 435.90 570.35 427.26 L 570.57 428.50 C 572.31 428.49 574.06 428.49 575.81 428.50 C 576.04 434.74 576.32 440.98 576.42 447.23 C 579.64 441.18 581.76 434.62 584.75 428.45 C 586.60 428.48 588.46 428.50 590.33 428.53 C 590.81 434.71 590.79 440.93 591.60 447.09 C 594.25 440.93 596.65 434.67 599.29 428.51 C 601.06 428.51 602.83 428.51 604.62 428.54 C 601.03 436.55 597.36 444.52 593.65 452.47 C 591.88 453.41 589.63 452.69 587.70 452.92 C 586.81 447.32 586.89 441.61 585.84 436.03 C 583.44 441.67 580.82 447.21 578.51 452.89 C 576.53 452.99 574.55 453.07 572.58 453.16 Z" />
<path fill="#040404" opacity="1.00" d=" M 162.93 428.43 C 164.64 428.53 166.40 428.31 168.07 428.77 C 168.65 434.79 168.62 440.86 168.95 446.91 C 171.87 440.84 174.42 434.61 177.19 428.47 C 179.04 428.49 180.89 428.51 182.74 428.55 C 183.18 434.75 183.27 441.01 184.52 447.12 C 186.18 440.66 189.46 434.79 191.61 428.50 C 193.44 428.50 195.27 428.51 197.10 428.52 C 193.05 436.53 189.76 444.89 185.87 452.98 C 183.89 452.91 181.90 452.87 179.92 452.82 C 179.55 447.14 179.11 441.45 178.49 435.79 C 175.80 441.42 173.58 447.28 170.63 452.78 C 168.82 453.26 166.90 453.00 165.04 453.08 C 164.22 444.88 163.28 436.67 162.93 428.43 Z" />
<path fill="#040404" opacity="1.00" d=" M 253.09 428.49 C 254.77 428.48 256.44 428.48 258.12 428.47 C 256.86 436.64 255.10 444.71 253.93 452.89 C 252.21 452.90 250.49 452.92 248.78 452.97 C 249.44 449.48 250.06 445.99 250.54 442.49 C 247.14 442.50 243.74 442.49 240.34 442.52 C 239.70 445.98 238.83 449.40 238.42 452.91 C 236.79 452.91 235.16 452.91 233.53 452.92 C 234.81 444.76 236.54 436.67 237.71 428.49 C 239.44 428.49 241.18 428.50 242.92 428.51 C 242.08 431.83 241.46 435.20 241.01 438.60 C 244.46 438.59 247.92 438.59 251.37 438.60 C 252.02 435.24 252.56 431.86 253.09 428.49 Z" />
<path fill="#040404" opacity="1.00" d=" M 272.52 428.63 C 276.60 427.67 281.61 427.93 284.47 431.42 C 289.16 437.03 286.87 446.08 281.45 450.39 C 276.36 454.18 267.76 454.71 263.78 449.07 C 258.80 441.67 264.07 430.54 272.52 428.63 M 272.38 433.47 C 266.94 435.76 264.43 445.54 270.72 448.27 C 277.76 450.79 284.44 442.06 281.30 435.72 C 279.79 432.42 275.33 432.12 272.38 433.47 Z" />
<path fill="#040404" opacity="1.00" d=" M 310.15 428.46 C 311.78 428.48 313.41 428.50 315.04 428.52 C 314.28 433.57 313.21 438.57 312.41 443.61 C 311.73 448.75 307.16 452.90 302.00 453.19 C 297.47 453.96 292.19 450.99 292.24 445.97 C 293.06 440.13 294.54 434.39 295.13 428.51 C 296.87 428.50 298.61 428.50 300.37 428.50 C 299.28 433.98 298.34 439.49 297.50 445.01 C 297.39 449.98 305.40 449.71 306.67 445.63 C 308.61 440.10 308.57 434.10 310.15 428.46 Z" />
<path fill="#040404" opacity="1.00" d=" M 703.14 428.51 C 704.78 428.49 706.43 428.47 708.08 428.44 C 707.19 433.98 706.29 439.52 705.15 445.01 C 705.55 450.27 713.88 449.55 714.89 444.97 C 716.45 439.58 716.69 433.90 718.12 428.47 C 719.72 428.48 721.34 428.49 722.97 428.51 C 721.70 434.22 721.09 440.07 719.68 445.74 C 717.75 452.41 708.96 455.22 703.19 451.80 C 700.28 450.01 699.77 446.19 700.51 443.12 C 701.47 438.26 702.22 433.37 703.14 428.51 Z" />
<path fill="#040404" opacity="1.00" d=" M 793.36 428.38 C 795.27 428.37 797.19 428.36 799.12 428.33 C 800.70 436.47 802.20 444.64 803.59 452.82 C 801.87 452.80 800.15 452.81 798.45 452.84 C 798.11 451.29 797.80 449.76 797.50 448.22 C 794.31 448.26 791.13 448.11 787.96 448.26 C 786.96 449.55 786.51 451.16 785.84 452.62 C 784.01 452.74 782.18 452.83 780.37 452.92 C 784.62 444.70 788.91 436.50 793.36 428.38 M 789.85 444.31 C 792.27 444.30 794.70 444.30 797.13 444.31 C 796.14 441.04 795.60 437.65 795.59 434.24 C 793.11 437.23 791.85 441.01 789.85 444.31 Z" />
<path fill="#040404" opacity="1.00" d=" M 848.46 428.62 C 853.28 427.26 859.35 428.57 861.76 433.37 C 864.67 439.79 861.75 448.17 855.54 451.51 C 850.59 454.15 843.30 454.10 839.78 449.18 C 834.69 441.79 839.94 430.52 848.46 428.62 M 848.33 433.47 C 843.51 435.62 841.02 442.98 844.76 447.11 C 848.21 450.14 854.24 448.44 856.29 444.51 C 857.54 441.89 858.85 438.58 857.15 435.86 C 855.85 432.40 851.26 432.13 848.33 433.47 Z" />
<path fill="#040404" opacity="1.00" d=" M 202.77 428.49 C 204.49 428.50 206.21 428.50 207.93 428.50 C 206.12 436.55 204.89 444.72 203.48 452.83 C 201.77 452.88 200.07 452.91 198.37 452.96 C 199.80 444.80 201.20 436.63 202.77 428.49 Z" />
<path fill="#040404" opacity="1.00" d=" M 213.77 428.50 C 219.72 428.51 225.67 428.51 231.62 428.51 C 231.48 429.48 231.20 431.41 231.06 432.38 C 228.86 432.41 226.67 432.42 224.48 432.43 C 223.30 439.28 221.95 446.11 220.86 452.98 C 219.14 452.93 217.43 452.90 215.72 452.89 C 217.18 446.10 217.98 439.19 219.54 432.42 C 217.33 432.42 215.12 432.41 212.92 432.40 C 213.20 431.09 213.48 429.79 213.77 428.50 Z" />
<path fill="#040404" opacity="1.00" d=" M 321.09 428.47 C 327.04 428.53 333.00 428.50 338.96 428.50 C 338.80 429.47 338.49 431.42 338.33 432.40 C 336.11 432.41 333.89 432.43 331.68 432.50 C 330.64 439.33 329.44 446.14 328.30 452.96 C 326.59 452.92 324.90 452.91 323.21 452.91 C 324.57 446.11 325.62 439.25 326.89 432.43 C 324.70 432.42 322.50 432.42 320.32 432.43 C 320.51 431.44 320.89 429.46 321.09 428.47 Z" />
<path fill="#040404" opacity="1.00" d=" M 357.14 428.54 C 362.21 428.47 367.28 428.52 372.36 428.50 C 372.09 429.80 371.81 431.12 371.54 432.43 C 368.19 432.42 364.85 432.42 361.50 432.41 C 361.12 434.53 360.71 436.64 360.17 438.72 C 362.86 438.71 365.56 438.72 368.26 438.72 C 367.98 440.02 367.68 441.32 367.36 442.62 C 364.81 442.58 362.25 442.58 359.70 442.57 C 359.06 446.02 358.35 449.46 357.74 452.92 C 356.02 452.89 354.30 452.86 352.58 452.82 C 354.38 444.78 355.50 436.61 357.14 428.54 Z" />
<path fill="#040404" opacity="1.00" d=" M 378.07 428.50 C 382.90 428.27 387.73 428.41 392.57 428.36 C 392.42 429.34 392.13 431.29 391.99 432.26 C 388.85 432.29 385.73 432.27 382.60 432.34 C 382.19 434.40 381.80 436.47 381.41 438.54 C 384.23 438.52 387.06 438.51 389.88 438.53 C 389.58 439.81 389.25 441.09 388.96 442.39 C 386.18 442.36 383.41 442.37 380.64 442.41 C 380.36 444.57 380.08 446.74 379.82 448.92 C 382.89 448.84 385.97 448.84 389.05 448.82 C 388.73 450.15 388.43 451.50 388.12 452.83 C 383.38 452.75 378.64 452.79 373.90 452.78 C 375.23 444.67 376.88 436.62 378.07 428.50 Z" />
<path fill="#040404" opacity="1.00" d=" M 393.64 452.78 C 397.90 444.61 402.24 436.49 406.63 428.38 C 408.64 428.37 410.65 428.37 412.67 428.39 C 413.91 436.58 415.31 444.78 417.15 452.86 C 415.30 452.80 413.45 452.77 411.61 452.74 C 411.35 451.23 411.11 449.73 410.86 448.24 C 407.63 448.23 404.40 448.24 401.18 448.19 C 400.36 449.71 399.56 451.23 398.76 452.76 C 397.05 452.77 395.34 452.77 393.64 452.78 M 403.13 444.34 C 405.53 444.30 407.93 444.29 410.34 444.29 C 409.67 440.92 408.91 437.57 408.57 434.15 C 406.73 437.53 404.98 440.96 403.13 444.34 Z" />
<path fill="#040404" opacity="1.00" d=" M 427.24 428.54 C 432.26 428.99 438.21 427.07 442.51 430.44 C 446.12 435.01 442.69 441.97 437.28 443.18 C 438.65 446.40 439.94 449.67 441.39 452.86 C 439.39 452.89 437.40 452.94 435.42 453.04 C 434.33 449.75 433.07 446.54 431.67 443.38 C 431.14 443.42 430.07 443.49 429.53 443.53 C 429.17 446.71 428.52 449.85 427.74 452.97 C 426.08 452.92 424.42 452.88 422.77 452.84 C 424.46 444.78 425.65 436.62 427.24 428.54 M 430.15 439.81 C 433.29 439.86 438.45 440.34 438.87 436.03 C 439.68 431.73 434.27 432.56 431.63 432.50 C 431.11 434.93 430.64 437.37 430.15 439.81 Z" />
<path fill="#040404" opacity="1.00" d=" M 610.19 428.50 C 611.92 428.50 613.65 428.50 615.40 428.51 C 613.75 436.57 612.39 444.68 611.05 452.79 C 609.35 452.87 607.66 452.96 605.98 453.06 C 607.14 444.83 608.99 436.73 610.19 428.50 Z" />
<path fill="#040404" opacity="1.00" d=" M 621.49 428.49 C 627.54 428.52 633.59 428.49 639.64 428.52 C 639.42 429.50 638.98 431.46 638.76 432.44 C 636.63 432.43 634.50 432.42 632.38 432.41 C 631.00 439.21 629.91 446.05 628.67 452.88 C 627.01 452.91 625.35 452.93 623.71 452.96 C 625.03 446.14 626.12 439.28 627.33 432.43 C 625.11 432.42 622.89 432.41 620.69 432.38 C 620.95 431.08 621.21 429.78 621.49 428.49 Z" />
<path fill="#040404" opacity="1.00" d=" M 645.44 428.47 C 647.06 428.49 648.70 428.50 650.34 428.52 C 649.87 431.90 649.19 435.24 648.53 438.59 C 651.93 438.59 655.34 438.56 658.75 438.65 C 659.59 435.32 660.22 431.94 660.56 428.52 C 662.27 428.51 663.99 428.49 665.72 428.49 C 664.28 436.62 662.77 444.73 661.43 452.88 C 659.68 452.89 657.93 452.89 656.19 452.91 C 657.10 449.49 657.64 445.99 658.00 442.47 C 654.74 442.50 651.47 442.53 648.22 442.45 C 647.14 445.82 646.64 449.34 646.21 452.85 C 644.49 452.88 642.78 452.91 641.07 452.94 C 642.43 444.77 643.93 436.62 645.44 428.47 Z" />
<path fill="#040404" opacity="1.00" d=" M 679.14 429.02 C 684.21 427.15 691.16 428.06 693.79 433.34 C 696.97 440.21 693.33 449.42 686.19 452.12 C 681.61 453.94 675.36 453.87 672.15 449.60 C 666.85 442.78 671.20 431.59 679.14 429.02 M 680.36 433.40 C 674.98 435.58 672.29 444.83 678.02 448.03 C 684.77 451.11 691.80 443.04 689.57 436.61 C 688.41 432.80 683.62 431.88 680.36 433.40 Z" />
<path fill="#040404" opacity="1.00" d=" M 729.03 428.48 C 734.97 428.54 740.92 428.47 746.86 428.52 C 746.71 429.49 746.39 431.43 746.23 432.40 C 744.04 432.42 741.86 432.43 739.69 432.45 C 738.70 439.31 737.31 446.11 736.11 452.95 C 734.35 452.92 732.61 452.91 730.88 452.92 C 732.68 446.19 733.19 439.19 734.86 432.43 C 732.56 432.43 730.25 432.41 727.96 432.40 C 728.23 431.42 728.76 429.46 729.03 428.48 Z" />
<path fill="#040404" opacity="1.00" d=" M 764.91 428.52 C 769.98 428.49 775.05 428.52 780.12 428.49 C 779.89 429.80 779.67 431.10 779.46 432.41 C 776.07 432.42 772.68 432.41 769.29 432.43 C 768.92 434.54 768.51 436.64 768.06 438.74 C 770.72 438.72 773.39 438.72 776.07 438.70 C 775.77 440.00 775.47 441.30 775.19 442.61 C 772.61 442.58 770.03 442.57 767.46 442.57 C 766.98 446.04 766.11 449.44 765.57 452.91 C 763.90 452.89 762.25 452.87 760.60 452.85 C 762.29 444.79 763.56 436.65 764.91 428.52 Z" />
<path fill="#040404" opacity="1.00" d=" M 811.59 428.54 C 813.36 428.51 815.16 428.49 816.96 428.48 C 818.36 434.86 818.93 441.40 820.41 447.77 C 823.57 441.27 827.12 434.97 830.39 428.52 C 832.14 428.51 833.88 428.51 835.65 428.54 C 831.34 436.78 826.78 444.89 822.39 453.09 C 820.36 452.97 818.35 452.89 816.33 452.81 C 814.78 444.71 813.29 436.61 811.59 428.54 Z" />
<path fill="#040404" opacity="1.00" d=" M 871.18 428.53 C 876.03 428.91 881.49 427.34 885.88 429.99 C 890.96 434.11 886.67 441.93 881.22 443.21 C 882.57 446.47 884.00 449.70 885.24 453.02 C 883.28 452.93 881.33 452.88 879.39 452.82 C 878.16 449.65 877.13 446.41 875.80 443.30 C 875.25 443.36 874.17 443.50 873.62 443.57 C 873.00 446.65 872.45 449.75 872.05 452.87 C 870.33 452.89 868.63 452.92 866.94 452.96 C 868.26 444.80 869.99 436.71 871.18 428.53 M 875.45 432.54 C 875.03 434.96 874.69 437.39 874.40 439.83 C 876.44 439.69 878.58 439.97 880.57 439.31 C 882.61 438.19 883.97 434.84 881.91 433.11 C 879.90 432.15 877.58 432.67 875.45 432.54 Z" />
<path fill="#040404" opacity="1.00" d=" M 508.94 438.62 C 509.94 438.53 510.94 438.44 511.95 438.35 C 511.56 439.95 511.22 441.56 510.98 443.19 C 510.90 442.35 510.75 440.66 510.67 439.82 C 510.13 440.20 509.05 440.98 508.51 441.37 C 508.66 440.45 508.80 439.53 508.94 438.62 Z" />
</g>
</svg>
