<svg id="Layer_1" data-name="Layer 1" xmlns="http://www.w3.org/2000/svg" viewBox="0 0 1692.96 280.35"><defs><style>.cls-1,.cls-2{fill:#034ea2;}.cls-2{fill-rule:evenodd;}.cls-3{fill:#ed1c24;}</style></defs><rect class="cls-1" x="24.96" y="190.09" width="1602.74" height="4.65"/><path class="cls-1" d="M39.73,221.8a5.4,5.4,0,0,0-4.49-2.47,3.57,3.57,0,0,0-3.66,3.38c0,5,11.88,2.95,11.88,13,0,6-3.73,10.26-9.85,10.26-4.14,0-7.16-2.38-9.23-5.84l3.78-3.7c.79,2.31,2.9,4.38,5.4,4.38s3.86-2,3.86-4.34c0-3.1-2.86-4-5.21-4.89-3.85-1.59-6.68-3.54-6.68-8.19a8.73,8.73,0,0,1,8.75-9c2.67,0,6.36,1.31,8.19,3.34Z"/><path class="cls-1" d="M59.25,245.18H53.41V220.29h-6V215.2H65.3v5.09h-6Z"/><path class="cls-1" d="M90.71,245.18H83.63l-7.28-12.09h-.08v12.09H70.43v-30h7.91c5.92,0,10,2.62,10,9,0,3.82-2.11,7.64-6.12,8.31ZM76.27,229H77c3.22,0,5.48-1,5.48-4.62S80.17,220,77.07,220h-.8Z"/><path class="cls-1" d="M110.51,234.09h-7.12l3.3-10.9h.08Zm1.63,4.77,2.31,6.32h6.24L109.31,214.4h-4.53L93.09,245.18h6.16l2.47-6.32Z"/><path class="cls-1" d="M132,245.18h-5.85V220.29h-6V215.2h17.93v5.09h-6Z"/><path class="cls-1" d="M149,220.29v6.6h9.31V232H149v8.11h9.67v5.09H143.2v-30h15.51v5.09Z"/><path class="cls-1" d="M192.07,229.23V230c0,8.47-4.33,16-13.64,16-8.75,0-14.27-7.39-14.27-15.66,0-8.55,5.68-15.91,14.63-15.91a13,13,0,0,1,11.85,7.16l-5.17,2.79a7.62,7.62,0,0,0-6.84-4.78c-5.65,0-8.43,5.77-8.43,10.74s2.82,10.5,8.47,10.5a7.08,7.08,0,0,0,6.84-6.8h-6.36v-4.78Z"/><path class="cls-1" d="M203.8,245.18H198v-30h5.84Z"/><path class="cls-1" d="M231.08,223.15a8.65,8.65,0,0,0-6.6-3.18c-5.61,0-8.83,5.17-8.83,10.34s3.34,10.1,8.79,10.1a9.15,9.15,0,0,0,6.64-3.18v7a15.69,15.69,0,0,1-6.8,1.79c-8.43,0-14.67-7.27-14.67-15.55,0-8.5,6-16,14.79-16a14,14,0,0,1,6.68,1.75Z"/><path class="cls-1" d="M258.24,232.14h.95c2.94,0,6.13.16,6.13,4.05s-2.71,4.3-5.85,4.3h-1.23Zm-5.85,13h9.19c5.45,0,9.58-2.63,9.58-8.51,0-3.3-1.59-6.88-5.13-7.52,1.87-1.19,2.63-3.65,2.63-5.8,0-6-3.42-8.15-9-8.15h-7.28Zm5.85-25.29H259c2.47,0,4.22.79,4.22,3.85s-1.39,3.94-4.26,3.94h-.71Z"/><path class="cls-1" d="M277.2,215.2h5.85V232c0,3.7.32,8.91,5.29,8.91s5.29-5.21,5.29-8.91V215.2h5.84v17.93c0,7.32-3.1,12.84-11.13,12.84s-11.14-5.52-11.14-12.84Z"/><path class="cls-1" d="M320.71,221.8a5.42,5.42,0,0,0-4.5-2.47,3.56,3.56,0,0,0-3.65,3.38c0,5,11.88,2.95,11.88,13,0,6-3.73,10.26-9.86,10.26-4.13,0-7.15-2.38-9.22-5.84l3.77-3.7c.8,2.31,2.91,4.38,5.41,4.38s3.86-2,3.86-4.34c0-3.1-2.86-4-5.21-4.89-3.86-1.59-6.68-3.54-6.68-8.19a8.73,8.73,0,0,1,8.75-9c2.66,0,6.36,1.31,8.19,3.34Z"/><path class="cls-1" d="M336.33,245.18h-5.84v-30h5.84Z"/><path class="cls-1" d="M343.57,214.4h4.22l15.78,21h.08V215.2h5.85v30.58h-4.22l-15.78-21h-.09v20.36h-5.84Z"/><path class="cls-1" d="M382.58,220.29v6.6h9.3V232h-9.3v8.11h9.66v5.09H376.73v-30h15.51v5.09Z"/><path class="cls-1" d="M413.24,221.8a5.42,5.42,0,0,0-4.5-2.47,3.56,3.56,0,0,0-3.65,3.38c0,5,11.88,2.95,11.88,13,0,6-3.73,10.26-9.86,10.26-4.13,0-7.15-2.38-9.22-5.84l3.77-3.7c.8,2.31,2.91,4.38,5.41,4.38s3.86-2,3.86-4.34c0-3.1-2.86-4-5.21-4.89C401.86,230,399,228,399,223.39a8.73,8.73,0,0,1,8.75-9c2.66,0,6.36,1.31,8.19,3.34Z"/><path class="cls-1" d="M437.13,221.8a5.39,5.39,0,0,0-4.49-2.47,3.57,3.57,0,0,0-3.66,3.38c0,5,11.89,2.95,11.89,13,0,6-3.74,10.26-9.86,10.26-4.14,0-7.16-2.38-9.22-5.84l3.77-3.7c.8,2.31,2.91,4.38,5.41,4.38s3.86-2,3.86-4.34c0-3.1-2.86-4-5.21-4.89-3.86-1.59-6.68-3.54-6.68-8.19a8.73,8.73,0,0,1,8.75-9c2.66,0,6.36,1.31,8.19,3.34Z"/><path class="cls-1" d="M467.23,245.18h-5.84v-30h5.84Z"/><path class="cls-1" d="M474.47,214.4h4.22l15.78,21h.08V215.2h5.85v30.58h-4.22l-15.78-21h-.08v20.36h-5.85Z"/><path class="cls-1" d="M517.38,245.18h-5.85V220.29h-6V215.2h17.93v5.09h-6Z"/><path class="cls-1" d="M534.39,220.29v6.6h9.31V232h-9.31v8.11h9.67v5.09H528.55v-30h15.51v5.09Z"/><path class="cls-1" d="M556.78,240.09h8.27v5.09H550.94v-30h5.84Z"/><path class="cls-1" d="M575.75,240.09H584v5.09H569.9v-30h5.85Z"/><path class="cls-1" d="M594.72,245.18h-5.85v-30h5.85Z"/><path class="cls-1" d="M628.44,229.23V230c0,8.47-4.34,16-13.64,16-8.75,0-14.28-7.39-14.28-15.66,0-8.55,5.69-15.91,14.64-15.91A13,13,0,0,1,627,221.56l-5.17,2.79a7.63,7.63,0,0,0-6.84-4.78c-5.65,0-8.43,5.77-8.43,10.74s2.82,10.5,8.47,10.5a7.09,7.09,0,0,0,6.84-6.8h-6.37v-4.78Z"/><path class="cls-1" d="M640.17,220.29v6.6h9.3V232h-9.3v8.11h9.66v5.09H634.32v-30h15.51v5.09Z"/><path class="cls-1" d="M656.71,214.4h4.21l15.79,21h.08V215.2h5.85v30.58h-4.22l-15.79-21h-.08v20.36h-5.84Z"/><path class="cls-1" d="M709.91,223.15a8.63,8.63,0,0,0-6.6-3.18c-5.6,0-8.82,5.17-8.82,10.34s3.34,10.1,8.78,10.1a9.13,9.13,0,0,0,6.64-3.18v7a15.61,15.61,0,0,1-6.8,1.79c-8.43,0-14.67-7.27-14.67-15.55,0-8.5,6-16,14.79-16a14,14,0,0,1,6.68,1.75Z"/><path class="cls-1" d="M722.6,220.29v6.6h9.3V232h-9.3v8.11h9.66v5.09H716.75v-30h15.51v5.09Z"/><path class="cls-1" d="M759.46,220.29v6.6h8.47V232h-8.47v13.2h-5.85v-30h14.88v5.09Z"/><path class="cls-1" d="M788.41,220.17c5.13,0,8.79,4.89,8.79,9.74,0,4.53-3.82,10.3-8.79,10.3s-8.79-5.77-8.79-10.3C779.62,225.06,783.28,220.17,788.41,220.17Zm0,25.8c8.75,0,14.83-7.23,14.83-15.83,0-8.38-6.08-15.74-14.83-15.74s-14.84,7.36-14.84,15.74C773.57,238.74,779.66,246,788.41,246Z"/><path class="cls-1" d="M814.93,220h.8c3.1,0,5.44.71,5.44,4.41S818.9,229,815.68,229h-.75Zm6,12.56c4-.67,6.13-4.49,6.13-8.31,0-6.4-4.1-9-10-9h-7.91v30h5.84V233.09H815l7.28,12.09h7.07Z"/><path class="cls-1" d="M858.47,245.18h-5.84V220.29h-6V215.2h17.94v5.09h-6Z"/><path class="cls-1" d="M886.31,227V215.2h5.84v30h-5.84v-13.4H875.49v13.4h-5.85v-30h5.85V227Z"/><path class="cls-1" d="M905.27,220.29v6.6h9.3V232h-9.3v8.11h9.66v5.09h-15.5v-30h15.5v5.09Z"/><path class="cls-1" d="M942.13,220.29v6.6h8.47V232h-8.47v13.2h-5.84v-30h14.87v5.09Z"/><path class="cls-1" d="M963.53,245.18h-5.85v-30h5.85Z"/><path class="cls-1" d="M970.76,214.4H975l15.78,21h.08V215.2h5.85v30.58h-4.22l-15.78-21h-.08v20.36h-5.85Z"/><path class="cls-1" d="M1018.83,234.09h-7.11l3.3-10.9h.08Zm1.64,4.77,2.3,6.32H1029l-11.37-30.78h-4.54l-11.69,30.78h6.16l2.47-6.32Z"/><path class="cls-1" d="M1033.79,214.4H1038l15.79,21h.08V215.2h5.85v30.58h-4.22l-15.78-21h-.08v20.36h-5.85Z"/><path class="cls-1" d="M1087,223.15a8.61,8.61,0,0,0-6.59-3.18c-5.61,0-8.84,5.17-8.84,10.34s3.34,10.1,8.79,10.1a9.13,9.13,0,0,0,6.64-3.18v7a15.61,15.61,0,0,1-6.8,1.79c-8.43,0-14.67-7.27-14.67-15.55,0-8.5,6-16,14.79-16a14,14,0,0,1,6.68,1.75Z"/><path class="cls-1" d="M1099.68,245.18h-5.85v-30h5.85Z"/><path class="cls-1" d="M1121.83,234.09h-7.12l3.3-10.9h.08Zm1.63,4.77,2.31,6.32H1132l-11.38-30.78h-4.53l-11.69,30.78h6.16l2.47-6.32Z"/><path class="cls-1" d="M1142.62,240.09h8.28v5.09h-14.12v-30h5.84Z"/><path class="cls-1" d="M1184.33,221.8a5.38,5.38,0,0,0-4.49-2.47,3.57,3.57,0,0,0-3.66,3.38c0,5,11.89,2.95,11.89,13,0,6-3.74,10.26-9.86,10.26-4.14,0-7.16-2.38-9.23-5.84l3.78-3.7c.8,2.31,2.91,4.38,5.41,4.38s3.85-2,3.85-4.34c0-3.1-2.85-4-5.2-4.89-3.86-1.59-6.68-3.54-6.68-8.19a8.73,8.73,0,0,1,8.75-9c2.66,0,6.36,1.31,8.19,3.34Z"/><path class="cls-1" d="M1200,220.29v6.6h9.31V232H1200v8.11h9.66v5.09h-15.5v-30h15.5v5.09Z"/><path class="cls-1" d="M1222.35,220h.8c3.09,0,5.44.71,5.44,4.41s-2.27,4.62-5.49,4.62h-.75Zm6,12.56c4-.67,6.13-4.49,6.13-8.31,0-6.4-4.1-9-10-9h-7.92v30h5.85V233.09h.08l7.28,12.09h7.07Z"/><path class="cls-1" d="M1252.45,235.4h.08l6.68-20.2h6.29L1253.84,246h-3.42L1239,215.2h6.28Z"/><path class="cls-1" d="M1275.91,245.18h-5.85v-30h5.85Z"/><path class="cls-1" d="M1303.19,223.15a8.63,8.63,0,0,0-6.6-3.18c-5.61,0-8.83,5.17-8.83,10.34s3.34,10.1,8.79,10.1a9.15,9.15,0,0,0,6.64-3.18v7a15.65,15.65,0,0,1-6.8,1.79c-8.43,0-14.67-7.27-14.67-15.55,0-8.5,6-16,14.79-16a14,14,0,0,1,6.68,1.75Z"/><path class="cls-1" d="M1315.87,220.29v6.6h9.31V232h-9.31v8.11h9.67v5.09H1310v-30h15.51v5.09Z"/><path class="cls-1" d="M1346.53,221.8a5.39,5.39,0,0,0-4.49-2.47,3.57,3.57,0,0,0-3.66,3.38c0,5,11.89,2.95,11.89,13,0,6-3.74,10.26-9.86,10.26-4.13,0-7.16-2.38-9.23-5.84l3.78-3.7c.8,2.31,2.9,4.38,5.41,4.38s3.86-2,3.86-4.34c0-3.1-2.87-4-5.21-4.89-3.86-1.59-6.68-3.54-6.68-8.19a8.72,8.72,0,0,1,8.74-9c2.67,0,6.37,1.31,8.19,3.34Z"/><path class="cls-1" d="M1390.83,223.15a8.65,8.65,0,0,0-6.6-3.18c-5.61,0-8.83,5.17-8.83,10.34s3.34,10.1,8.79,10.1a9.15,9.15,0,0,0,6.64-3.18v7A15.69,15.69,0,0,1,1384,246c-8.44,0-14.68-7.27-14.68-15.55,0-8.5,6-16,14.8-16a14,14,0,0,1,6.68,1.75Z"/><path class="cls-1" d="M1411.07,220.17c5.13,0,8.78,4.89,8.78,9.74,0,4.53-3.81,10.3-8.78,10.3s-8.79-5.77-8.79-10.3C1402.28,225.06,1405.94,220.17,1411.07,220.17Zm0,25.8c8.75,0,14.83-7.23,14.83-15.83,0-8.38-6.08-15.74-14.83-15.74s-14.83,7.36-14.83,15.74C1396.24,238.74,1402.32,246,1411.07,246Z"/><path class="cls-1" d="M1454.13,226.57h-.07l-6.8,19h-2l-6.57-19h-.08l-2.66,18.61H1430l5-30.78h4.14l7.4,19.76,7.07-19.76h4.22l4.49,30.78h-5.88Z"/><path class="cls-1" d="M1490.36,226.57h-.08l-6.8,19h-2l-6.56-19h-.08l-2.67,18.61h-5.88l5-30.78h4.14l7.39,19.76,7.08-19.76h4.21l4.5,30.78h-5.88Z"/><path class="cls-1" d="M1504,215.2h5.84V232c0,3.7.32,8.91,5.29,8.91s5.29-5.21,5.29-8.91V215.2h5.84v17.93c0,7.32-3.09,12.84-11.13,12.84S1504,240.45,1504,233.13Z"/><path class="cls-1" d="M1533.42,214.4h4.22l15.79,21h.08V215.2h5.84v30.58h-4.22l-15.78-21h-.08v20.36h-5.85Z"/><path class="cls-1" d="M1572.43,245.18h-5.84v-30h5.84Z"/><path class="cls-1" d="M1589.41,245.18h-5.84V220.29h-6V215.2h17.93v5.09h-6Z"/><path class="cls-1" d="M1597.8,215.2h6.8l5.25,10.42,5.72-10.42h6.84L1613,231.43v13.75h-5.85V231.43Z"/><path class="cls-1" d="M45.7,173c9.13-.39,18.25-1.16,27.38-1.16,8.38,0,16.74.77,25.11,1.16V165.6c-12.62,0-14-3.68-14-20.37V75.35c0-8.16.31-16.51.92-24.66H97c8.51,0,17,2.33,17,14,0,3.11,0,6.21-.15,9.13h5.94c0-12.81,2.13-25.23,4.1-37.86-5.47,1.17-14.45,1.94-28.75,1.94H59.09c-13.24,0-25.87-.57-31.8-1.55,0,9.33-1.83,27.38-3.5,39h5.78c1.52-19.41,11.87-23.49,25.72-23.49h5.77c.31,12.8.61,27.17.61,40.77V114c0,49.12-2.12,50.87-16,51.63V173Z"/><path class="cls-1" d="M129,173c7.75-.39,15.51-1.16,23.12-1.16s15.37.77,22.82,1.16V165.6c-9-1.16-10.95-2.71-10.95-22.71V105.05c7.76-.2,15.67-.79,23.43-.79s15.52.59,23.28.79v25.61c0,31.85-2.29,34.94-11.11,34.94V173c7.6-.39,15.22-1.16,22.82-1.16,7.76,0,15.37.77,23.28,1.16V165.6c-9,0-12.48-5.42-12.48-24.65V68c0-16.11,2.74-23.49,12.48-23.89V36.72c-7.45.38-14.76,1.15-22.06,1.15-8.06,0-16-.77-24-1.15v7.36c7.92.4,11.11,4.67,11.11,21.56V94.56c-7.76.2-15.52.77-23.28.77s-15.67-.57-23.43-.77V75.35c0-23.49.75-30.48,11.1-31.27V36.72c-7.6.38-15.36,1.15-23,1.15S136.72,37.1,129,36.72v7.36c10.49.59,12.47,5.06,12.47,38.25v46c0,31.26-1.07,35.34-12.47,37.27V173Z"/><path class="cls-1" d="M257.61,172.8c9.74-.79,19.32-1,29.06-1,18.41,0,38.49,1.94,42.75,1.94,6.7,0,10,0,10.8-3.69,2.13-10.29,3.66-21,6.85-31.06l-5.93-1.74c-2.44,23.49-25.87,25.62-39.72,25.62H292.9c-.45-9.13-.6-18-.6-27v-27c3.95-1,13.38-1.54,19.77-1.54,7.92,0,16,.19,20.24.38l3.95-11.65a96.34,96.34,0,0,1-21.45,1.94,144,144,0,0,1-22.51-1.74c0-16.51.3-46.39.6-51.05h7.77c11.71,0,32.1,3.88,32.1,19.22a41.55,41.55,0,0,1-.31,6.2h6.09c0-8.92,2.43-25,3-34.55a111,111,0,0,0-13.69-.57c-14.3,0-28.76,2.31-43,2.31-9.74,0-18.26-.77-26.63-1.15v7c10.34,0,11.56,3.1,11.56,35.12v50.09c0,32.23-2,36.29-12.17,36.68v7.2Z"/><path class="cls-2" d="M478,173a126.48,126.48,0,0,1,14.76-1.16c5.93,0,12,.39,17.95.39V165.6c-5.32-.76-8.52-1.93-12-14L476.22,76.32a317.18,317.18,0,0,1-9.44-40.39c-5.47.79-10.95,1.94-16.58,1.94a149.19,149.19,0,0,1-15.83-1.35v7.56c4.58.2,9.29,2.73,9.29,7,0,7-27.39,84.64-31.65,97.26-5.48,16.3-9.44,17.26-13.84,17.26V173c5.77-.39,11.71-1.16,17.49-1.16,6.39,0,12.63.77,19,1.16V165.6c-5.48-.57-9.89-.76-9.89-6.79,0-9.89,23.43-96.86,23.43-96.86h.3S473.63,154.74,478,173Z"/><path class="cls-1" d="M664.09,36.72c-7.91.38-15.67,1.15-23.58,1.15s-16-.77-24-1.15v7.36c11.41,1.57,12.62,4.48,12.62,40.2v39.79c0,33.19-.45,40.37-12.62,41.53V173c7.76-.39,15.36-1.16,23.13-1.16,8.21,0,16.27.77,24.49,1.16V165.6c-11-1-12.48-1.93-12.48-30.28V76.69c0-29.49,1.22-32.21,12.48-32.61V36.72Z"/><path class="cls-2" d="M735.75,118.63c5,17.67,9.13,36.11,13.55,54.35a126.48,126.48,0,0,1,14.76-1.16c5.93,0,12,.39,17.94.39V165.6c-5.32-.76-8.52-1.93-12-14L747.47,76.32c-4.1-13.78-7.76-29.12-9.43-40.39-5.48.79-11,1.94-16.59,1.94a148.78,148.78,0,0,1-15.82-1.35v7.56c4.57.2,9.28,2.73,9.28,7,0,7-27.38,84.64-31.64,97.26-5.48,16.3-9.45,17.26-13.85,17.26V173c5.78-.39,11.71-1.16,17.5-1.16,6.38,0,12.62.77,19,1.16V165.6c-5.49-.57-9.89-.76-9.89-6.79,0-9.89,4-24.25,7.91-40.18ZM719.47,62h.31l13.54,47.94c-4,.39-10.35.58-13.54.58-3.35,0-9.73-.19-13.7-.58L719.47,62Z"/><path class="cls-2" d="M872,173.19a68.18,68.18,0,0,1,8.82-1,70,70,0,0,1,9,1c-.15-4.47-.31-9.14-.31-13.6,0-29.32,1.82-58.81,3.2-88.13.61-12.62,1.51-27.38,13.23-27.38V36.72c-6.24.38-12.47,1.15-18.71,1.15-7,0-14-.77-21-1.15v7.36c15.51.2,16,7.78,16,73.78v23.87h-.15l-29.22-46c-11.25-17.66-26-40-33-60.56A68.46,68.46,0,0,1,800,37.87c-5.31,0-10.8-.77-16.12-1.15v7.36c9.59,0,14,9.53,14,12.63V96.89c0,53.19-3.36,68.53-16.13,68.71V173c6.39-.39,12.77-1.16,19.18-1.16,6.69,0,13.38.77,20.08,1.16V165.6c-14.31-1.55-15.22-6.59-15.22-73.95V69.52h.61L872,173.19Z"/><path class="cls-2" d="M959.55,172.8c5-.21,10.2-1,15.21-1,14.15,0,22.82,2.13,36.81,2.13,20.4,0,43.22-13.19,43.22-40,0-26-16-34.17-33.32-36.69v-.39c11.72-7.18,23.58-18.06,23.58-36.5,0-17.46-13.38-24.26-25.86-24.26-13.38,0-25.41,1.17-38.19,1.17-7,0-14.15-.39-20.85-.78v7.76c9.75,0,10.2.78,10.2,31.65v48.14c0,40.77-1.22,41.53-10.8,41.53v7.2Zm33.31-68.93c2.44-.19,4.57-.19,10.36-.19,15.36,0,29.06,11.84,29.06,32.81,0,20.58-7.76,28.93-22.22,28.93-5.94,0-14.15-4.86-17.2-9.52v-52Zm0-7.56V45.06a66.32,66.32,0,0,1,8.07-.78c15.82,0,22.83,11.27,22.83,28.16,0,8.92-4.42,18.44-8.69,23.87Z"/><path class="cls-2" d="M1124.44,118.63c5,17.67,9.14,36.11,13.55,54.35a126.31,126.31,0,0,1,14.75-1.16c5.93,0,12,.39,18,.39V165.6c-5.33-.76-8.53-1.93-12-14l-22.52-75.31a320.47,320.47,0,0,1-9.43-40.39c-5.48.79-11,1.94-16.58,1.94a148.56,148.56,0,0,1-15.82-1.35v7.56c4.56.2,9.27,2.73,9.27,7,0,7-27.38,84.64-31.65,97.26-5.47,16.3-9.43,17.26-13.84,17.26V173c5.79-.39,11.73-1.16,17.5-1.16,6.4,0,12.64.77,19,1.16V165.6c-5.47-.57-9.88-.76-9.88-6.79,0-9.89,4-24.25,7.9-40.18ZM1108.16,62h.31L1122,109.89c-4,.39-10.36.58-13.54.58-3.35,0-9.74-.19-13.7-.58L1108.16,62Z"/><path class="cls-2" d="M1260.69,173.19a68,68,0,0,1,8.83-1,70.23,70.23,0,0,1,9,1c-.16-4.47-.31-9.14-.31-13.6,0-29.32,1.83-58.81,3.21-88.13.6-12.62,1.52-27.38,13.22-27.38V36.72c-6.23.38-12.47,1.15-18.7,1.15-7,0-14-.77-21-1.15v7.36c15.51.2,16,7.78,16,73.78v23.87h-.15l-29.21-46c-11.26-17.66-26-40-33-60.56a68.3,68.3,0,0,1-19.78,2.7c-5.32,0-10.79-.77-16.12-1.15v7.36c9.6,0,14,9.53,14,12.63V96.89c0,53.19-3.35,68.53-16.14,68.71V173c6.39-.39,12.79-1.16,19.17-1.16,6.7,0,13.4.77,20.09,1.16V165.6c-14.31-1.55-15.21-6.59-15.21-73.95V69.52h.6l65.57,103.67Z"/><path class="cls-1" d="M1300.68,173c7.75-.39,15.68-1.16,23.43-1.16s15.07.77,22.67,1.16V165.6c-9,0-10.5-3.48-10.5-27.36V114.55L1343,108l34.86,65c5.92-.18,11.84-1.16,17.79-1.16s11.71.39,17.65.39V165.6c-7.15,0-12.78-6.79-22.82-23.87l-29.67-50.28L1394.55,55c5.79-6.21,8.22-10.88,16.44-10.88V36.72c-6.84.38-13.85,1.15-20.7,1.15-7.3,0-14.75-.77-22.06-1.15v7.36c5.49,0,9.6,0,9.6,5.25,0,7.57-27.7,43.49-41.55,56.69V72.44c0-23.3.76-27.38,11.11-28.36V36.72c-7.46.38-14.75,1.15-22.22,1.15-7.76,0-15.35-.77-23.12-1.15v7.36c10.35,1,11.72,1.76,11.72,38.45V125c0,38.25-2.59,39.8-13.09,40.56V173Z"/><path class="cls-1" d="M1418.16,172.8c9.74-.79,19.33-1,29.06-1,18.41,0,38.48,1.94,42.76,1.94,6.69,0,10,0,10.79-3.69,2.14-10.29,3.66-21,6.85-31.06l-5.92-1.74c-2.45,23.49-25.88,25.62-39.72,25.62h-8.51c-.47-9.13-.62-18-.62-27v-27c4-1,13.39-1.54,19.79-1.54,7.9,0,16,.19,20.23.38l4-11.65a96.43,96.43,0,0,1-21.46,1.94,144,144,0,0,1-22.51-1.74c0-16.51.3-46.39.62-51.05h7.75c11.71,0,32.11,3.88,32.11,19.22a41.55,41.55,0,0,1-.31,6.2h6.08c0-8.92,2.43-25,3.05-34.55a111.42,111.42,0,0,0-13.7-.57c-14.3,0-28.75,2.31-43,2.31-9.73,0-18.26-.77-26.63-1.15v7c10.35,0,11.56,3.1,11.56,35.12v50.09c0,32.23-2,36.29-12.17,36.68v7.2Z"/><path class="cls-2" d="M1565.48,113.59c10.35,19.2,19.78,39.21,28.91,59.39a124.62,124.62,0,0,1,16.89-1.16c5.63,0,11.1.19,16.74.39V165.6c-1.83,0-4.88-.57-6-1.35-7.9-5.83-28.74-46-34.38-57.85,11.87-8,27.08-21.16,27.08-40.76,0-21.56-14.61-30.47-36.81-30.47-14,0-27.4,2.7-40.77,2.7-5.18,0-10.66-.77-15.38-1.15v7.36c9.45.79,11,2.14,11,36.51v51.63c0,29.7-2.42,32.62-12.77,33.38V173c8-.39,16.12-1.16,24.19-1.16,7.15,0,14.45.77,21.61,1.16V165.6c-7.46-.57-10.5-1.55-10.5-23.09V113.59Zm-10.19-26.22c0-27.95.31-37.64.77-41.15,2.72-1,7.9-1.35,11.25-1.35,14.29,0,24.34,13.58,24.34,31.64,0,19-8.51,28.14-23,28.14a80.3,80.3,0,0,1-13.39-1.17V87.37Z"/><path class="cls-1" d="M521,129.5c0,7.36.15,14.16.15,21a100.56,100.56,0,0,1-2.44,22.13,12.16,12.16,0,0,1,4.26-1c5.64,0,18,3.7,33.93,3.7,26.79,0,45.8-12.43,45.8-40.77,0-49.69-59.33-32-59.33-73.18,0-14.56,8.67-18.84,19.47-18.84,14.45,0,24.49,11.65,24.64,30.87H594c-.15-5.82-.15-13-.15-18.83a86.24,86.24,0,0,1,2.28-19.8,15.74,15.74,0,0,1-8.22,2c-8.52,0-16-2.34-25.56-2.34-22.66,0-42.45,11.27-42.45,40,0,47,59.34,34.35,59.34,68.71,0,17.08-7.3,23.68-18.56,23.68-12.17,0-33.17-6.79-33.17-37.26Z"/><path class="cls-3" d="M428.29,121.17c-.52.08-1.05.15-1.52.18-19.84,1.37,1-21.55,1-21.55-42.65,24.65-35,35.62-35,35.62,9.44,15.28,57-10.93,91.74-33A421.21,421.21,0,0,0,522.3,76.81C530.56,71.89,458.55,113.19,428.29,121.17Z"/><path class="cls-1" d="M1651,35.5a17.81,17.81,0,0,1,17.73,18,17.85,17.85,0,1,1-17.8-18Zm-.07,2.82c-8,0-14.44,6.81-14.44,15.23,0,8.58,6.49,15.32,14.51,15.32s14.44-6.74,14.44-15.24S1659,38.32,1651,38.32Zm-3.37,25.74h-3.21V43.93a34.74,34.74,0,0,1,5.69-.49c3,0,5,.65,6.25,1.53a4.79,4.79,0,0,1,1.85,4.17,5,5,0,0,1-3.93,4.9v.16c1.77.31,3,1.92,3.37,4.89a16.17,16.17,0,0,0,1.29,5h-3.38c-.48-.64-1-2.49-1.36-5.13s-1.76-3.54-4.33-3.54h-2.24Zm0-11.15h2.32c2.65,0,4.89-1,4.89-3.45,0-1.76-1.28-3.53-4.89-3.53a15.63,15.63,0,0,0-2.32.16Z"/></svg>